<svg  viewBox="0 0 37 37" fill="none" xmlns="http://www.w3.org/2000/svg">
<path fill-rule="evenodd" clip-rule="evenodd" d="M12.9731 0C9.2006 0 6.1666 3.16504 6.1666 7.04233C6.1666 9.39954 7.28894 11.4931 9.01406 12.7712C8.12495 13.4373 7.40427 14.3025 6.90978 15.2973C6.4153 16.2922 6.16077 17.389 6.1666 18.5C6.1666 20.8587 7.28894 22.9508 9.01406 24.2288C8.12495 24.895 7.40427 25.7601 6.90978 26.755C6.4153 27.7498 6.16077 28.8467 6.1666 29.9577C6.1666 33.835 9.2006 37 12.9731 37C16.744 37 19.7795 33.835 19.7795 29.9577V24.0037C20.9717 24.9978 22.4745 25.5427 24.0268 25.5439C27.7993 25.5423 30.8333 22.3773 30.8333 18.5C30.8333 16.1412 29.7125 14.0492 27.9858 12.7712C28.8749 12.105 29.5956 11.2399 30.0901 10.245C30.5846 9.25015 30.8391 8.15329 30.8333 7.04233C30.8333 3.16504 27.7993 0 24.0268 0H12.9731ZM8.72423 7.04233C8.72423 4.58954 10.639 2.62546 12.9731 2.62546H17.2204V11.4592H12.9731C10.639 11.4592 8.72423 9.49358 8.72423 7.04233ZM24.0268 11.4577H19.7795V2.62392H24.0268C26.3624 2.62392 28.2756 4.58954 28.2756 7.04233C28.2756 9.49358 26.3624 11.4577 24.0268 11.4577ZM8.72577 18.5C8.72577 16.0487 10.6405 14.0831 12.9746 14.0831H17.2219V22.9169H12.9731C10.6374 22.9169 8.72423 20.9513 8.72423 18.5H8.72577ZM19.7795 18.5C19.7795 16.0487 21.6943 14.0831 24.0284 14.0831C26.364 14.0831 28.2772 16.0472 28.2772 18.5C28.2772 20.9513 26.364 22.9169 24.0284 22.9169C21.6943 22.9169 19.7811 20.9528 19.7811 18.5H19.7795ZM8.72577 29.9577C8.72577 27.5064 10.6405 25.5423 12.9746 25.5423H17.2219V29.9577C17.2219 32.4105 15.3102 34.3745 12.9746 34.3745C10.6405 34.3745 8.72577 32.4105 8.72577 29.9577Z" fill="#5E5E5E"/>
</svg>
