<svg   viewBox="0 0 39 39" fill="none" xmlns="http://www.w3.org/2000/svg">
<path d="M0 0V39H39V0H0ZM16.5703 27.9952L12.9645 20.5641L9.48546 27.9775H6.09474L11.0846 18.4714L6.26011 8.85879H9.7794L13.1951 16.1657L16.5822 8.84104H19.8857L15.0573 18.1698L20.1708 27.9952H16.5702H16.5703ZM32.03 27.2148C30.5403 27.9243 28.9795 28.2435 27.4897 28.2435C23.6412 28.2613 20.8923 25.8847 20.8923 21.0607C21.0175 16.119 24.3103 13.3615 28.9263 13.736V8.85879H32.0832V25.2817C32.0898 27.2404 32.3059 27.052 32.03 27.2148V27.2148ZM28.9263 16.5205V25.2994C25.8103 26.108 24.0875 24.2117 24.1023 20.9188C24.114 17.5418 26.3328 15.7891 28.9263 16.5205Z" fill="#5E5E5E"/>
</svg>
