<svg  viewBox="0 0 38 38" fill="none" xmlns="http://www.w3.org/2000/svg">
<path fill-rule="evenodd" clip-rule="evenodd" d="M38 38H0V0H38V38ZM30.1632 16.1065V13.1593C29.6779 12.9432 26.8983 12.1481 24.7024 12.986C21.5392 14.1929 21.6528 17.8289 22.8531 19.2559C24.4084 21.1048 28.2772 21.7942 27.6441 23.609C27.3163 24.5487 25.7858 24.7123 24.4365 24.3968C23.18 24.1031 22.0875 23.3588 22.0875 23.3588V26.4793C22.0875 26.4793 23.1674 27.0814 24.4928 27.2246C26.1919 27.4082 28.3217 27.0616 29.3886 26.1132C31.2879 24.4249 31.5796 20.6851 27.9803 18.9484C24.9852 17.5034 25.0345 17.0909 25.0555 16.3497C25.0837 15.357 27.1681 14.7459 30.1632 16.1065V16.1065ZM14.0118 7.83564C16.5038 7.92233 20.1661 9.07087 20.1661 13.9683C20.1661 18.8658 15.6852 20.4729 11.5966 20.1227V27.0572H8.55074V7.90059C8.55074 7.90059 11.5196 7.74896 14.0117 7.83564H14.0118ZM14.8027 17.0889C16.1161 16.6096 16.9697 15.5794 16.9697 13.9791C16.9697 12.2824 16.101 11.1334 14.7724 10.8088C13.3335 10.4573 11.5966 10.6645 11.5966 10.6645V17.3474C11.5966 17.3474 14.0009 17.3814 14.8027 17.0889V17.0889Z" fill="#5E5E5E"/>
</svg>
