<svg  viewBox="0 0 35 35" fill="none" xmlns="http://www.w3.org/2000/svg">
<path d="M0 0H35V35H0V0Z" fill="white"/>
<path d="M9.20277 29.2485L11.8811 27.6276C12.3979 28.5437 12.8679 29.3189 13.9955 29.3189C15.0762 29.3189 15.7578 28.8962 15.7578 27.2517V16.0684H19.0468V27.2982C19.0468 30.7048 17.0499 32.2555 14.1364 32.2555C11.5053 32.2555 9.97797 30.8928 9.20264 29.2482" fill="#5E5E5E"/>
<path d="M20.8336 28.8961L23.5117 27.3455C24.2167 28.4969 25.133 29.3426 26.754 29.3426C28.1169 29.3426 28.9859 28.6612 28.9859 27.7214C28.9859 26.5937 28.0931 26.1942 26.5895 25.5366L25.7674 25.1839C23.3944 24.1739 21.8203 22.9052 21.8203 20.2269C21.8203 17.7599 23.6998 15.8803 26.6367 15.8803C28.7276 15.8803 30.2313 16.6087 31.3119 18.5117L28.7509 20.1565C28.1869 19.1462 27.5763 18.7469 26.6365 18.7469C25.6732 18.7469 25.0623 19.3578 25.0623 20.1565C25.0623 21.1432 25.6732 21.5428 27.0828 22.1536L27.905 22.506C30.7009 23.7043 32.2749 24.9259 32.2749 27.6745C32.2749 30.635 29.9491 32.2559 26.8244 32.2559C23.7702 32.2559 21.7967 30.7993 20.8335 28.8962" fill="#5E5E5E"/>
</svg>
