<svg  viewBox="0 0 33 33" fill="none" xmlns="http://www.w3.org/2000/svg">
<path d="M0 16.5V33H33V0H0V16.5Z" fill="white"/>
<path d="M7.29755 16.6096L7.28711 17.9609H11.5823V30.1658H14.6206V17.9609H18.9157V16.6358C18.9157 15.9023 18.9 15.2895 18.8791 15.2737C18.8634 15.2528 16.2496 15.2423 13.0805 15.2476L7.31341 15.2633L7.29768 16.6095L7.29755 16.6096Z" fill="#5E5E5E"/>
<path d="M26.6279 15.2249C27.4659 15.4345 28.1051 15.8062 28.6917 16.4139C28.9955 16.7387 29.4459 17.3307 29.4827 17.4721C29.493 17.514 28.0579 18.4778 27.1884 19.0173C27.157 19.0383 27.0311 18.902 26.8897 18.6924C26.4655 18.0745 26.0203 17.8072 25.3392 17.7602C24.3389 17.692 23.6945 18.2159 23.6998 19.0905C23.6998 19.3473 23.7364 19.4991 23.8412 19.7087C24.0613 20.1644 24.4698 20.4368 25.7532 20.992C28.1155 22.0083 29.1264 22.6787 29.7551 23.632C30.457 24.6955 30.6141 26.3925 30.1374 27.6549C29.6137 29.0272 28.3147 29.9597 26.4864 30.2687C25.9207 30.3682 24.5799 30.3525 23.9722 30.2426C22.647 30.0068 21.3898 29.3521 20.6146 28.493C20.3107 28.1578 19.7188 27.283 19.7555 27.2201C19.7713 27.1992 19.9074 27.1154 20.0592 27.0264C20.2059 26.9426 20.7613 26.6229 21.285 26.3192L22.2331 25.7691L22.4322 26.0625C22.7098 26.4868 23.3173 27.0682 23.6841 27.262C24.7369 27.8173 26.1827 27.7387 26.895 27.0996C27.1988 26.822 27.3245 26.5339 27.3245 26.1096C27.3245 25.7272 27.2774 25.5597 27.0783 25.2717C26.8218 24.9049 26.2979 24.5958 24.8102 23.9517C23.1079 23.2182 22.3745 22.7625 21.7041 22.0396C21.3165 21.6207 20.9497 20.9501 20.7979 20.3896C20.6722 19.9235 20.6406 18.7553 20.7403 18.2839C21.0913 16.6391 22.3326 15.4921 24.124 15.1515C24.7054 15.0416 26.0569 15.0834 26.6279 15.225V15.2249Z" fill="#5E5E5E"/>
</svg>
