<svg  viewBox="0 0 33 31" fill="none" xmlns="http://www.w3.org/2000/svg">
<g clip-path="url(#clip0)">
<path d="M22.8655 21.5644C24.0833 21.4402 25.0072 20.4055 24.9651 19.1637C24.9232 17.9221 23.8733 16.9287 22.6135 16.9287H22.5296C21.2276 16.9701 20.2198 18.0462 20.2619 19.3293C20.3039 19.9502 20.5558 20.4882 20.9337 20.8607C19.506 23.6339 17.3223 25.662 14.0468 27.359C11.8211 28.518 9.51147 28.9319 7.20186 28.6422C5.3121 28.3938 3.84231 27.5661 2.91831 26.2001C1.57459 24.172 1.44865 21.9782 2.58251 19.7846C3.38044 18.2117 4.64011 17.0528 5.43804 16.4733C5.27007 15.9353 5.01806 15.0247 4.89212 14.3625C-1.19702 18.7085 -0.56706 24.5859 1.28068 27.359C2.66642 29.4287 5.48006 30.7117 8.5876 30.7117C9.42743 30.7117 10.2673 30.6289 11.1072 30.4221C16.4825 29.3872 20.5559 26.2415 22.8655 21.5644V21.5644ZM30.2565 16.432C27.0649 12.7482 22.3616 10.7202 16.9864 10.7202H16.3145C15.9365 9.97514 15.1386 9.47838 14.2568 9.47838H14.1727C12.871 9.51979 11.8632 10.5959 11.9051 11.8791C11.9472 13.1207 12.997 14.1141 14.2568 14.1141H14.3407C15.2646 14.0727 16.0625 13.4933 16.3984 12.7068H17.1543C20.3459 12.7068 23.3694 13.6174 26.0991 15.3972C28.1988 16.7631 29.7106 18.543 30.5504 20.6952C31.2643 22.4336 31.2223 24.1306 30.4663 25.5793C29.2906 27.773 27.3169 28.9733 24.7133 28.9733C23.0335 28.9733 21.4378 28.4765 20.5978 28.104C20.1359 28.518 19.296 29.1801 18.708 29.5942C20.5139 30.4219 22.3616 30.8773 24.1253 30.8773C28.1567 30.8773 31.1383 28.6835 32.2722 26.4899C33.49 24.0892 33.4059 19.9502 30.2565 16.432V16.432ZM8.92353 22.2679C8.96556 23.5097 10.0154 24.503 11.2752 24.503H11.3592C12.661 24.4617 13.6688 23.3854 13.6268 22.1024C13.5849 20.8606 12.535 19.8673 11.2752 19.8673H11.1913C11.1072 19.8673 10.9811 19.8673 10.8973 19.9086C9.17555 17.0941 8.46166 14.0313 8.71367 10.72C8.88151 8.2366 9.72146 6.08426 11.1913 4.30443C12.409 2.77298 14.7607 2.02796 16.3565 1.98667C20.8078 1.90383 22.6974 7.36733 22.8235 9.56109C23.3694 9.68521 24.2933 9.97501 24.9232 10.182C24.4192 3.47683 20.2198 0 16.1886 0C12.409 0 8.92353 2.69039 7.53766 6.66386C5.606 11.9618 6.8658 17.0528 9.21744 21.0677C9.00758 21.3573 8.88151 21.8127 8.92353 22.268V22.2679Z" fill="#5E5E5E"/>
</g>
<defs>
<clipPath id="clip0">
<rect width="33" height="31" fill="white"/>
</clipPath>
</defs>
</svg>
