<svg  viewBox="0 0 32 23" fill="none" xmlns="http://www.w3.org/2000/svg">
<path d="M27.5351 13.2386C26.4218 13.2442 25.4542 13.5011 24.6441 13.881C24.3467 13.3167 24.0494 12.8141 23.9971 12.4454C23.9387 12.0153 23.8688 11.7527 23.9387 11.2388C24.0087 10.7249 24.3234 9.99313 24.3176 9.9373C24.3118 9.88148 24.2476 9.6189 23.6064 9.61339C22.9653 9.60776 22.4116 9.73066 22.3474 9.89262C22.2833 10.0546 22.1609 10.4233 22.0793 10.803C21.9686 11.3617 20.7971 13.3558 20.1268 14.4004C19.9111 13.9927 19.7246 13.6352 19.6837 13.3503C19.6254 12.9202 19.5554 12.6577 19.6254 12.1437C19.6954 11.6298 20.0102 10.8982 20.0043 10.8422C19.9984 10.7864 19.9343 10.5238 19.2932 10.5183C18.6519 10.5127 18.0982 10.6356 18.0342 10.7975C17.9701 10.9596 17.9001 11.3393 17.7661 11.7081C17.6319 12.0768 16.0757 15.406 15.6677 16.2661C15.5028 16.6143 15.3298 16.9588 15.1489 17.2996C15.1489 17.2996 15.1431 17.3164 15.1256 17.3443C15.0687 17.4511 15.0105 17.5572 14.9508 17.6627V17.6682C14.8633 17.8191 14.7701 17.9587 14.7234 17.9587C14.6884 17.9587 14.6243 17.5565 14.7351 17.0091C14.9682 15.8529 15.5219 14.0542 15.5162 13.9927C15.5162 13.9592 15.6211 13.6464 15.1548 13.4843C14.7001 13.3224 14.5369 13.5905 14.4961 13.5905C14.4553 13.5905 14.4261 13.6855 14.4261 13.6855C14.4261 13.6855 14.9333 11.6634 13.4586 11.6634C12.5377 11.6634 11.2669 12.6297 10.6374 13.5011C9.92183 13.8743 9.20683 14.2486 8.49243 14.6239C8.14868 14.8083 7.79306 14.9926 7.46081 15.1657C7.43743 15.1434 7.41418 15.1154 7.39081 15.0931C5.60718 13.2666 2.30818 11.9762 2.44806 9.52402C2.50056 8.63026 2.82106 6.28414 8.78393 3.43537C13.6917 1.11716 17.5971 1.75949 18.2732 3.18393C19.2407 5.21727 16.1807 8.99335 11.1096 9.54067C9.17443 9.74743 8.16018 9.0324 7.90381 8.7643C7.63568 8.48495 7.59481 8.46818 7.49568 8.52412C7.33256 8.60798 7.43743 8.8593 7.49568 9.00449C7.64731 9.38423 8.27093 10.0546 9.32593 10.3842C10.2586 10.6746 12.5259 10.8367 15.2713 9.82003C18.3431 8.68045 20.7446 5.51328 20.0393 2.86001C19.3339 0.167574 14.6709 -0.720562 10.2586 0.781985C7.63568 1.67587 4.79118 3.08342 2.74531 4.91564C0.314685 7.09405 -0.070065 8.98772 0.0873099 9.78098C0.65281 12.5962 4.70381 14.4284 6.32418 15.7858C6.24256 15.8305 6.16668 15.8696 6.10268 15.9032C5.29243 16.2885 2.20318 17.8358 1.43381 19.4725C0.55956 21.327 1.57381 22.6565 2.24406 22.8352C4.32493 23.3882 6.46406 22.394 7.61231 20.7516C8.76056 19.1094 8.62068 16.9755 8.09031 15.998C8.08443 15.9869 8.07868 15.9756 8.06693 15.9645C8.27681 15.8472 8.49243 15.7243 8.70231 15.607C9.08804 15.3885 9.47868 15.178 9.87393 14.9757C9.67568 15.4953 9.52993 16.1153 9.46006 17.0091C9.37256 18.0593 9.82131 19.4222 10.4101 19.9584C10.6724 20.1931 10.9813 20.1987 11.1796 20.1987C11.8673 20.1987 12.1763 19.6512 12.5202 19.0033C12.9398 18.2101 13.3187 17.2884 13.3187 17.2884C13.3187 17.2884 12.8466 19.7797 14.1289 19.7797C14.5952 19.7797 15.0673 19.1988 15.2772 18.9028V18.9083C15.2772 18.9083 15.2888 18.8915 15.3122 18.8524C15.3588 18.7798 15.3879 18.735 15.3879 18.735V18.724C15.5744 18.4111 15.9942 17.7017 16.6178 16.5231C17.4222 15.0038 18.1974 13.1046 18.1974 13.1046C18.1974 13.1046 18.2674 13.5682 18.5063 14.339C18.6463 14.7915 18.9376 15.2886 19.1708 15.769C18.9843 16.0204 18.8677 16.16 18.8677 16.16L18.8736 16.1656C18.7219 16.3555 18.5588 16.5621 18.3781 16.7634C17.7427 17.4894 16.9851 18.3219 16.8801 18.5619C16.7576 18.8468 16.7868 19.0536 17.0201 19.2212C17.1891 19.3441 17.4921 19.3607 17.8011 19.3441C18.3723 19.3049 18.7744 19.1708 18.9726 19.0871C19.2816 18.981 19.6429 18.8189 19.9809 18.5787C20.6047 18.1374 20.9834 17.5062 20.9486 16.674C20.9311 16.2159 20.7737 15.7579 20.5813 15.3277C20.6397 15.2496 20.6921 15.1714 20.7504 15.0931C21.7354 13.7134 22.4991 12.1996 22.4991 12.1996C22.4991 12.1996 22.5691 12.6632 22.8079 13.4341C22.9246 13.8251 23.1636 14.2497 23.3733 14.663C22.4466 15.3836 21.8753 16.2215 21.6713 16.7689C21.3042 17.7856 21.5897 18.2435 22.1318 18.3497C22.3766 18.4 22.7263 18.2882 22.9828 18.1821C23.3092 18.0816 23.6939 17.9085 24.0612 17.6514C24.6849 17.2102 25.2852 16.5957 25.2502 15.7635C25.2327 15.3836 25.1278 15.0093 24.9821 14.6462C25.7689 14.3335 26.7832 14.1603 28.0771 14.3055C30.8517 14.6183 31.3996 16.2773 31.2946 16.9757C31.1897 17.6738 30.6068 18.0537 30.4146 18.1709C30.2221 18.2883 30.1581 18.3274 30.1756 18.4111C30.1988 18.534 30.2921 18.5285 30.4553 18.5061C30.6827 18.4671 31.9126 17.9419 31.9649 16.6571C32.0524 15.0149 30.4203 13.2219 27.5351 13.2386ZM6.13181 20.154C5.21081 21.1147 3.92856 21.4778 3.37481 21.1706C2.78031 20.841 3.01343 19.4222 4.14418 18.4056C4.83193 17.7856 5.71793 17.2101 6.30668 16.8583C6.44068 16.78 6.63893 16.6684 6.87793 16.5287C6.91868 16.5063 6.94206 16.4952 6.94206 16.4952L7.08193 16.4113C7.49568 17.8637 7.09943 19.1429 6.13181 20.154ZM12.8349 15.7858C12.5143 16.5343 11.8441 18.4503 11.4361 18.3442C11.0863 18.2548 10.8706 16.8024 11.3661 15.3669C11.6167 14.6462 12.1471 13.786 12.4561 13.4509C12.9573 12.9146 13.5111 12.7358 13.6451 12.9538C13.8142 13.2386 13.0331 15.3165 12.8349 15.7858ZM18.3664 18.3218C18.2323 18.3888 18.1042 18.4335 18.0458 18.4C18.0051 18.3776 18.1042 18.2882 18.1042 18.2882C18.1042 18.2882 18.7978 17.5733 19.0717 17.2493C19.2292 17.0594 19.4156 16.836 19.6138 16.5845V16.6571C19.6138 17.5119 18.7511 18.0872 18.3663 18.3218H18.3664ZM22.6331 17.3889C22.5339 17.3219 22.5514 17.0984 22.8837 16.4002C23.0119 16.1265 23.3149 15.6685 23.8338 15.2272C23.8921 15.4059 23.9329 15.5791 23.9271 15.7411C23.9212 16.8192 23.1169 17.2214 22.6331 17.3889Z" fill="white"/>
</svg>
