<svg  viewBox="0 0 39 35" fill="none" xmlns="http://www.w3.org/2000/svg">
<path d="M32.0658 11.3328C31.6507 11.1893 31.2322 11.0564 30.8105 10.9341C30.8813 10.6425 30.9465 10.3543 31.0044 10.0713C31.9547 5.42285 31.3335 1.67801 29.2115 0.445025C27.1769 -0.736993 23.8496 0.495529 20.4892 3.44244C20.158 3.73339 19.8342 4.03272 19.518 4.34016C19.3063 4.13572 19.0909 3.93526 18.8719 3.73886C15.35 0.587942 11.8199 -0.740063 9.70018 0.49645C7.66746 1.68215 7.06555 5.20257 7.92111 9.60796C8.00623 10.0443 8.10234 10.4783 8.20935 10.9097C7.70966 11.0528 7.22749 11.2051 6.76604 11.3672C2.63692 12.8178 0 15.0911 0 17.4492C0 19.8846 2.83085 22.3274 7.13152 23.8086C7.48018 23.9282 7.83174 24.039 8.18589 24.1409C8.07087 24.6056 7.96876 25.0733 7.87968 25.5437C7.06403 29.8727 7.70098 33.3099 9.72821 34.4881C11.822 35.7048 15.3363 34.4543 18.7581 31.4401C19.0356 31.1951 19.3069 30.9431 19.5719 30.6844C19.9143 31.0173 20.2658 31.3405 20.6261 31.6537C23.9408 34.5277 27.2144 35.6882 29.2396 34.5068C31.3315 33.2865 32.0114 29.594 31.1287 25.1016C31.0592 24.7497 30.9812 24.3994 30.8949 24.0513C31.1417 23.9776 31.3839 23.9018 31.62 23.8229C36.091 22.3303 39 19.9172 39 17.4492C39 15.0825 36.2779 12.7939 32.0658 11.3328V11.3328ZM31.0961 22.2295C30.8828 22.3005 30.6641 22.3691 30.441 22.4359C29.9474 20.8614 29.2814 19.1872 28.4662 17.4573C29.2441 15.7687 29.8845 14.1159 30.3642 12.5516C30.7632 12.668 31.1503 12.7907 31.5236 12.9201C35.1326 14.1721 37.334 16.0229 37.334 17.4492C37.334 18.9683 34.9565 20.9404 31.0961 22.2295V22.2295ZM29.4944 25.4277C29.8847 27.4141 29.9403 29.2101 29.6817 30.6143C29.4496 31.8759 28.9825 32.717 28.4048 33.054C27.1758 33.7709 24.5475 32.8391 21.7128 30.3811C21.3777 30.0899 21.0507 29.7894 20.7322 29.48C21.8312 28.2689 22.9294 26.8611 24.0013 25.2975C25.8867 25.1289 27.6679 24.8532 29.2832 24.477C29.3627 24.8004 29.4334 25.1176 29.4944 25.4277V25.4277ZM13.296 32.9301C12.0952 33.3573 11.1388 33.3696 10.5606 33.0337C9.33045 32.3188 8.81903 29.5589 9.51661 25.8569C9.59953 25.4194 9.69448 24.9843 9.80134 24.5522C11.3988 24.9083 13.1671 25.1644 15.0569 25.3188C16.1361 26.8488 17.266 28.2551 18.4048 29.4866C18.1628 29.7225 17.9151 29.9525 17.6618 30.1761C16.1486 31.5089 14.6323 32.4545 13.296 32.9301V32.9301ZM7.67051 22.2201C5.7688 21.5651 4.19829 20.7139 3.12183 19.785C2.15445 18.9504 1.66618 18.1216 1.66618 17.4492C1.66618 16.0182 3.7833 14.193 7.31448 12.9525C7.74302 12.802 8.19152 12.66 8.65693 12.5268C9.14504 14.1263 9.78519 15.7988 10.5577 17.49C9.77514 19.2063 9.12585 20.9054 8.63302 22.5239C8.30976 22.4306 7.98883 22.3293 7.67051 22.2201V22.2201ZM9.55622 9.28544C8.82329 5.51112 9.31003 2.66399 10.535 1.94941C11.8397 1.18831 14.7248 2.27347 17.7657 4.99426C17.964 5.17208 18.1591 5.3535 18.3509 5.53845C17.2177 6.76452 16.0982 8.16038 15.0286 9.68134C13.1943 9.85266 11.4386 10.1277 9.82434 10.4963C9.72489 10.0951 9.63549 9.69137 9.55622 9.28559V9.28544ZM26.3791 13.4713C25.9978 12.8077 25.6024 12.1524 25.1931 11.5059C26.4374 11.6645 27.6297 11.875 28.7492 12.1323C28.4132 13.2179 27.9942 14.3528 27.5011 15.5164C27.1406 14.8272 26.7666 14.1454 26.3791 13.4713V13.4713ZM19.5187 6.73827C20.2872 7.5772 21.0568 8.51375 21.8138 9.52998C20.2782 9.4569 18.74 9.45659 17.2043 9.52906C17.9621 8.5222 18.7383 7.58687 19.5187 6.73827ZM12.6144 13.4828C12.2317 14.1515 11.8646 14.8291 11.5134 15.515C11.0283 14.3555 10.6132 13.2154 10.2742 12.1145C11.3869 11.8636 12.5735 11.6585 13.81 11.5029C13.3961 12.1533 12.9975 12.8134 12.6144 13.4827V13.4828ZM13.8455 23.5149C12.5681 23.3713 11.3636 23.1768 10.2512 22.9327C10.5955 21.8121 11.0198 20.6477 11.5154 19.4634C11.868 20.1498 12.2366 20.8278 12.6209 21.4968C13.0161 22.1845 13.4253 22.8581 13.8455 23.5149ZM19.5647 28.2783C18.775 27.4199 17.9874 26.4701 17.2182 25.4487C17.965 25.4782 18.7262 25.4932 19.5 25.4932C20.2949 25.4932 21.0807 25.4752 21.8542 25.4406C21.0947 26.4804 20.328 27.4316 19.5647 28.2783ZM27.5168 19.4029C28.0381 20.6003 28.4775 21.7585 28.8263 22.8599C27.6956 23.12 26.4748 23.3293 25.1884 23.4848C25.6006 22.8264 25.9997 22.1597 26.3856 21.4852C26.778 20.7997 27.1551 20.1054 27.5168 19.4029V19.4029ZM24.9425 20.6465C24.3517 21.6806 23.7277 22.695 23.0715 23.6882C21.8829 23.7731 20.6916 23.8152 19.5 23.8146C18.2863 23.8146 17.1058 23.7765 15.969 23.7022C15.2957 22.7113 14.6598 21.6951 14.0627 20.6557H14.0629C13.4686 19.6218 12.9135 18.5656 12.3988 17.4893C12.9122 16.4127 13.4656 15.3559 14.0578 14.3213L14.0577 14.3214C14.6497 13.2865 15.2805 12.2746 15.9487 11.288C17.1085 11.1995 18.2979 11.1535 19.4998 11.1535H19.5C20.7075 11.1535 21.8983 11.2 23.0578 11.289C23.7193 12.2742 24.3461 13.2826 24.937 14.3124C25.5312 15.3448 26.0919 16.3963 26.6183 17.4655C26.0973 18.5455 25.5384 19.6065 24.9425 20.6465V20.6465ZM28.3794 1.89937C29.6852 2.65831 30.1932 5.71882 29.3726 9.7323C29.3202 9.98836 29.2614 10.2492 29.1974 10.5137C27.5792 10.1373 25.8223 9.85741 23.9827 9.68349C22.9111 8.14579 21.8007 6.74779 20.686 5.53752C20.9781 5.25376 21.2772 4.97736 21.583 4.70858C24.4623 2.18382 27.1533 1.18693 28.3794 1.89937V1.89937ZM19.5 13.94C21.4233 13.94 22.9826 15.5111 22.9826 17.4492C22.9826 19.3872 21.4233 20.9584 19.5 20.9584C17.5767 20.9584 16.0174 19.3872 16.0174 17.4492C16.0174 15.5111 17.5767 13.94 19.5 13.94V13.94Z" fill="#5E5E5E"/>
</svg>
