<svg width="135" height="38" viewBox="0 0 135 38" fill="none" xmlns="http://www.w3.org/2000/svg">
<g clip-path="url(#clip0)">
<path d="M124.425 32.5001H128.299L135.001 15.7343H131.167L128.396 24.0844L125.478 15.7343H121.198L126.294 27.8449L124.425 32.5001ZM105.199 19.7142V28.3084H101.29V15.7343H104.036L104.853 16.8327C105.916 15.954 107.054 15.441 108.365 15.441C110.121 15.441 111.457 15.954 112.273 17.2241C113.46 16.1492 114.722 15.441 116.33 15.441C119.347 15.441 121.104 16.9797 121.104 21.1548V28.3084H117.196V21.5944C117.196 19.6655 116.404 19.1036 115.142 19.1036C114.4 19.1036 113.782 19.2988 113.089 19.7384C113.139 20.178 113.164 20.6415 113.164 21.1548V28.3084H109.255V21.5944C109.255 19.6655 108.464 19.1036 107.178 19.1036C106.46 19.1036 105.866 19.2746 105.199 19.7142ZM91.5683 20.7886H96.5899C96.3178 19.153 95.4271 18.3714 94.0916 18.3714C92.9531 18.3714 91.8654 19.0307 91.5683 20.7886ZM94.3637 28.5528C90.6038 28.5528 87.5858 26.7215 87.5858 21.8872C87.5858 17.3699 90.5049 15.4168 93.8691 15.4168C97.9251 15.4168 99.731 18.2244 99.731 22.6441H91.5432C91.8161 24.8168 93.1764 25.4522 94.9823 25.4522C96.7286 25.4522 98.0947 25.0266 99.1517 24.3247L98.6215 27.3847C97.6124 28.1541 96.4014 28.5528 94.3637 28.5528ZM79.8117 25.3059C80.7016 25.3059 81.3697 25.1588 82.0621 24.6464V19.1772C81.4441 18.8102 80.826 18.64 79.9353 18.64C78.0306 18.64 76.9424 19.9094 76.9424 22.0335C76.9424 24.1092 78.0556 25.3059 79.8114 25.3059H79.8117ZM82.8289 27.3811C81.815 28.1379 80.6528 28.6017 78.9951 28.6017C75.5075 28.6017 72.9847 26.4779 72.9847 22.1069C72.9847 17.7608 75.879 15.4171 79.5889 15.4171C80.4545 15.4171 81.2959 15.5394 82.0621 15.8319V10.4948H85.9708V28.3084H83.497L82.8289 27.3811ZM56.4253 20.8615V11.5426H60.4816V20.7886C60.4816 24.1092 61.9904 24.7926 64.0684 24.7926C66.3196 24.7926 67.4816 23.8158 67.4816 20.7886V11.5426H71.5632V20.8615C71.5632 26.3553 69.1393 28.6504 63.8706 28.6504C58.9732 28.6504 56.4253 26.6729 56.4253 20.8615Z" fill="#645A53"/>
<path d="M46.0872 21.5603C45.9277 21.4315 45.7384 21.3437 45.5361 21.3047C44.3464 22.4752 42.8947 23.7084 41.6056 24.5368C41.0107 24.9272 40.2627 25.1224 39.7672 25.1224C38.6269 25.1224 38.1317 24.0491 37.9827 22.3432C37.7844 20.0518 37.6505 17.3074 37.6505 13.0655C37.6505 8.71501 36.6504 5.75752 33.9857 5.52536C33.8709 5.51472 33.7556 5.50917 33.6403 5.5087C32.0047 5.5087 31.2119 6.33741 30.1709 8.43418C29.2789 10.2379 27.8909 12.8705 25.3141 17.8431C23.0834 22.134 20.6052 25.9366 18.4734 28.5695C17.8801 29.2993 17.4108 29.8006 16.9699 30.0858C16.6751 30.2772 16.3925 30.3729 16.0945 30.3729C15.2534 30.3729 14.6391 29.672 14.4339 28.0404C14.3851 27.6525 14.3596 27.2122 14.3596 26.7163C14.3596 23.3526 15.6489 17.892 17.8785 9.84747C19.5143 3.99729 18.8209 0 15.2516 0H15.2115L15.2088 0.000520548C14.401 0.00989041 13.731 0.298794 13.0855 0.800082C12.45 1.29408 11.8138 2.36094 11.2203 3.79531C10.5508 5.4111 6.48157 13.4687 0.00447024 17.6198C-0.0719946 19.1978 0.833191 20.7756 2.66729 20.9466C4.3366 21.1028 5.52207 20.4081 7.0482 19.3961C6.84354 20.2969 6.64192 21.1983 6.44334 22.1004C6.32706 22.6272 6.25323 22.9661 6.23135 23.06C6.02988 23.9641 5.87578 24.8778 5.76966 25.7976C4.8563 33.8557 8.63999 37.8321 13.071 37.8321C13.8139 37.8332 14.5539 37.7425 15.274 37.5622C20.1561 36.3405 24.8558 30.8125 30.4193 18.0872C30.3349 19.4714 30.3259 20.7644 30.3866 21.964C30.7531 29.2571 33.6756 31.4455 37.8045 31.4455C40.9269 31.4455 43.851 29.837 45.3378 27.8376C46.4289 26.4238 46.8748 24.8635 46.8748 23.6446C46.8748 22.6988 46.5708 21.9437 46.0872 21.5603Z" fill="#EA5252"/>
</g>
<defs>
<clipPath id="clip0">
<rect width="135" height="38" fill="white"/>
</clipPath>
</defs>
</svg>
