<svg width="63" height="61" viewBox="0 0 63 61" fill="none" xmlns="http://www.w3.org/2000/svg">
<path d="M31.4723 0.290347C14.3255 0.283413 0.4375 14.1645 0.4375 31.2974C0.4375 44.8456 9.12529 56.3623 21.2244 60.5918C22.8538 61.0009 22.6042 59.843 22.6042 59.0526V53.679C13.1953 54.7815 12.814 48.5551 12.183 47.5151C10.9072 45.3379 7.89111 44.7832 8.79248 43.7432C10.935 42.6407 13.119 44.0205 15.6498 47.7577C17.4803 50.4688 21.0511 50.0112 22.8607 49.5605C23.256 47.9311 24.1019 46.475 25.2667 45.3448C15.5181 43.5976 11.455 37.6486 11.455 30.5763C11.455 27.1442 12.5852 23.9894 14.8039 21.4447C13.3895 17.2499 14.9356 13.6583 15.1437 13.1244C19.1721 12.7639 23.36 16.0088 23.6858 16.2654C25.9739 15.6483 28.5879 15.3224 31.5139 15.3224C34.4537 15.3224 37.0746 15.6621 39.3835 16.2861C40.167 15.6899 44.0498 12.9026 47.7939 13.2423C47.995 13.7762 49.5065 17.2846 48.1753 21.4239C50.4218 23.9755 51.5658 27.158 51.5658 30.5971C51.5658 37.6832 47.475 43.6392 37.6986 45.3587C38.536 46.1822 39.2009 47.1643 39.6545 48.2476C40.108 49.331 40.3412 50.4938 40.3403 51.6683V59.4686C40.3958 60.0926 40.3403 60.7097 41.3804 60.7097C53.6598 56.5703 62.5001 44.9704 62.5001 31.3043C62.5001 14.1645 48.6052 0.290347 31.4723 0.290347Z" fill="#A2A2A2"/>
</svg>
