<svg width="65" height="65" viewBox="0 0 65 65" fill="none" xmlns="http://www.w3.org/2000/svg">
<path d="M32.4746 4.84326C16.7769 4.83692 4.0625 17.5449 4.0625 33.23C4.0625 45.6333 12.0161 56.1768 23.0928 60.0488C24.5845 60.4234 24.356 59.3633 24.356 58.6397V53.7202C15.7422 54.7295 15.3931 49.0293 14.8154 48.0772C13.6475 46.084 10.8862 45.5762 11.7114 44.624C13.6729 43.6148 15.6724 44.8779 17.9893 48.2993C19.665 50.7813 22.9341 50.3623 24.5908 49.9497C24.9526 48.458 25.7271 47.125 26.7935 46.0903C17.8687 44.4907 14.1489 39.0444 14.1489 32.5698C14.1489 29.4277 15.1836 26.5396 17.2148 24.21C15.9199 20.3696 17.3355 17.0815 17.5259 16.5928C21.2139 16.2627 25.0479 19.2334 25.3462 19.4683C27.4409 18.9033 29.834 18.605 32.5127 18.605C35.2041 18.605 37.6035 18.916 39.7173 19.4873C40.4346 18.9414 43.9893 16.3897 47.417 16.7007C47.6011 17.1895 48.9849 20.4014 47.7661 24.1909C49.8228 26.5269 50.8701 29.4404 50.8701 32.5889C50.8701 39.0762 47.125 44.5288 38.1748 46.103C38.9414 46.8569 39.5501 47.7561 39.9654 48.7478C40.3806 49.7396 40.5941 50.8042 40.5933 51.8794V59.0205C40.644 59.5918 40.5933 60.1568 41.5454 60.1568C52.7871 56.3672 60.8804 45.7476 60.8804 33.2363C60.8804 17.5449 48.1597 4.84326 32.4746 4.84326V4.84326Z" fill="#A2A2A2"/>
</svg>
