<svg width="60" height="59" viewBox="0 0 60 59" fill="none" xmlns="http://www.w3.org/2000/svg">
<path d="M43.74 35.3576C42.9881 34.9833 39.3262 33.2262 38.6419 32.9755C37.9575 32.7358 37.4606 32.6104 36.9619 33.3497C36.4744 34.0707 35.0381 35.7208 34.5994 36.202C34.1606 36.6833 33.7294 36.7201 32.9887 36.3938C32.2369 36.0195 29.835 35.2507 26.9831 32.7358C24.7556 30.7869 23.2725 28.3864 22.8319 27.647C22.3931 26.9169 22.7831 26.5039 23.1544 26.1388C23.4956 25.8033 23.9063 25.2944 24.2869 24.8519C24.6488 24.4094 24.765 24.1126 25.0294 23.6332C25.2731 23.1151 25.1475 22.7113 24.9619 22.3462C24.7762 21.9812 23.2819 18.3619 22.6575 16.9201C22.0612 15.4893 21.4369 15.6719 20.9775 15.6719C20.5481 15.6332 20.0494 15.6332 19.5525 15.6332C19.0556 15.6332 18.2437 15.8157 17.5594 16.5163C16.875 17.2557 14.9419 19.022 14.9419 22.5952C14.9419 26.1776 17.6175 29.6438 17.9887 30.1619C18.3694 30.6413 23.2519 38.0163 30.7425 41.1857C32.5294 41.925 33.9169 42.3675 35.0006 42.7326C36.7875 43.2894 38.4188 43.212 39.7069 43.0294C41.1319 42.799 44.1206 41.2521 44.7469 39.5245C45.3825 37.7858 45.3825 36.3458 45.1969 36.0195C45.0112 35.6839 44.5237 35.5014 43.7719 35.1751L43.74 35.3576ZM30.1556 53.4688H30.1163C25.6819 53.4688 21.2981 52.2869 17.4694 50.0781L16.5713 49.5508L7.19625 51.9513L9.71625 42.9815L9.11063 42.0596C6.63462 38.1884 5.32106 33.7082 5.32125 29.1349C5.32125 15.7493 16.4644 4.83062 30.1744 4.83062C36.8156 4.83062 43.0463 7.375 47.7338 11.9844C50.0461 14.2312 51.8804 16.9083 53.1294 19.8595C54.3785 22.8108 55.0173 25.977 55.0087 29.1737C54.99 42.5501 43.8562 53.4688 30.165 53.4688H30.1556ZM51.2981 8.47941C45.5944 3.06247 38.0944 0 30.1163 0C13.6613 0 0.2625 13.1183 0.253125 29.24C0.253125 34.3878 1.62 39.4102 4.2375 43.8554L0 59L15.84 54.9382C20.2281 57.2646 25.1329 58.4883 30.1181 58.5003H30.1275C46.5919 58.5003 59.9906 45.3821 60 29.2493C60 21.4428 56.9044 14.0955 51.2606 8.57344L51.2981 8.47941Z" fill="#A2A2A2"/>
</svg>
