<svg width="60" height="62" viewBox="0 0 60 62" fill="none" xmlns="http://www.w3.org/2000/svg">
<path d="M30 0.96875C13.4274 0.96875 0 14.4102 0 31C0 47.5898 13.4274 61.0312 30 61.0312C46.5726 61.0312 60 47.5898 60 31C60 14.4102 46.5726 0.96875 30 0.96875ZM44.7339 21.5426L39.8105 44.7684C39.4476 46.4152 38.4677 46.8148 37.1008 46.0398L29.6008 40.5059L25.9839 43.9934C25.5847 44.393 25.246 44.732 24.4718 44.732L25.004 37.091L38.9032 24.5215C39.5081 23.9887 38.7702 23.6859 37.9718 24.2188L20.7944 35.0445L13.3911 32.7316C11.7823 32.223 11.746 31.1211 13.7298 30.3461L42.6532 19.1812C43.996 18.6969 45.1694 19.5082 44.7339 21.5426V21.5426Z" fill="#A2A2A2"/>
</svg>
