<svg width="61" height="61" viewBox="0 0 61 61" fill="none" xmlns="http://www.w3.org/2000/svg">
<path d="M45.2916 33.8429V44.7799H38.9519V34.5736C38.9519 32.0117 38.0349 30.2633 35.7392 30.2633C33.9879 30.2633 32.9436 31.4407 32.485 32.5827C32.3194 32.9909 32.275 33.5589 32.275 34.1269V44.7799H25.9323C25.9323 44.7799 26.0181 27.4973 25.9323 25.7075H32.275V28.4085L32.2336 28.4706H32.275V28.4114C33.1181 27.1097 34.6209 25.2578 37.9905 25.2578C42.1617 25.2578 45.2916 27.9854 45.2916 33.8429ZM19.2968 16.51C17.1283 16.51 15.7083 17.936 15.7083 19.8056C15.7083 21.6398 17.0869 23.1042 19.2139 23.1042H19.2554C21.4682 23.1042 22.8438 21.6368 22.8438 19.8056C22.8024 17.936 21.4682 16.51 19.2968 16.51ZM16.084 44.7799H22.4267V25.7075H16.084V44.7799Z" fill="#A2A2A2"/>
<path d="M12.75 6.83332C11.1808 6.83332 9.67589 7.45668 8.5663 8.56627C7.45671 9.67586 6.83335 11.1808 6.83335 12.75V48.25C6.83335 49.8192 7.45671 51.3241 8.5663 52.4337C9.67589 53.5433 11.1808 54.1667 12.75 54.1667H48.25C49.8192 54.1667 51.3241 53.5433 52.4337 52.4337C53.5433 51.3241 54.1667 49.8192 54.1667 48.25V12.75C54.1667 11.1808 53.5433 9.67586 52.4337 8.56627C51.3241 7.45668 49.8192 6.83332 48.25 6.83332H12.75ZM12.75 0.916656H48.25C51.3884 0.916656 54.3983 2.16338 56.6174 4.38256C58.8366 6.60174 60.0834 9.61159 60.0834 12.75V48.25C60.0834 51.3884 58.8366 54.3982 56.6174 56.6174C54.3983 58.8366 51.3884 60.0833 48.25 60.0833H12.75C9.61162 60.0833 6.60177 58.8366 4.38259 56.6174C2.16341 54.3982 0.916687 51.3884 0.916687 48.25V12.75C0.916687 9.61159 2.16341 6.60174 4.38259 4.38256C6.60177 2.16338 9.61162 0.916656 12.75 0.916656Z" fill="#A2A2A2"/>
</svg>
