<svg width="71" height="71" viewBox="0 0 71 71" fill="none" xmlns="http://www.w3.org/2000/svg">
<path d="M50.2916 38.8429V49.7799H43.9519V39.5736C43.9519 37.0117 43.0349 35.2633 40.7392 35.2633C38.9879 35.2633 37.9436 36.4407 37.485 37.5827C37.3194 37.9909 37.275 38.5589 37.275 39.1269V49.7799H30.9323C30.9323 49.7799 31.0181 32.4973 30.9323 30.7075H37.275V33.4085L37.2336 33.4706H37.275V33.4114C38.1181 32.1097 39.6209 30.2578 42.9905 30.2578C47.1617 30.2578 50.2916 32.9854 50.2916 38.8429V38.8429ZM24.2968 21.51C22.1283 21.51 20.7083 22.936 20.7083 24.8056C20.7083 26.6398 22.0869 28.1042 24.2139 28.1042H24.2554C26.4682 28.1042 27.8438 26.6368 27.8438 24.8056C27.8024 22.936 26.4682 21.51 24.2968 21.51ZM21.084 49.7799H27.4267V30.7075H21.084V49.7799V49.7799Z" fill="#A2A2A2"/>
<path d="M17.75 11.8333C16.1808 11.8333 14.6759 12.4567 13.5663 13.5663C12.4567 14.6759 11.8334 16.1808 11.8334 17.75V53.25C11.8334 54.8192 12.4567 56.3241 13.5663 57.4337C14.6759 58.5433 16.1808 59.1667 17.75 59.1667H53.25C54.8192 59.1667 56.3241 58.5433 57.4337 57.4337C58.5433 56.3241 59.1667 54.8192 59.1667 53.25V17.75C59.1667 16.1808 58.5433 14.6759 57.4337 13.5663C56.3241 12.4567 54.8192 11.8333 53.25 11.8333H17.75ZM17.75 5.91666H53.25C56.3884 5.91666 59.3983 7.16338 61.6174 9.38256C63.8366 11.6017 65.0834 14.6116 65.0834 17.75V53.25C65.0834 56.3884 63.8366 59.3982 61.6174 61.6174C59.3983 63.8366 56.3884 65.0833 53.25 65.0833H17.75C14.6116 65.0833 11.6018 63.8366 9.38259 61.6174C7.16341 59.3982 5.91669 56.3884 5.91669 53.25V17.75C5.91669 14.6116 7.16341 11.6017 9.38259 9.38256C11.6018 7.16338 14.6116 5.91666 17.75 5.91666V5.91666Z" fill="#A2A2A2"/>
</svg>
