<svg width="62" height="62" viewBox="0 0 60 60" fill="none" xmlns="http://www.w3.org/2000/svg">
<path fill-rule="evenodd" clip-rule="evenodd" d="M30 60C46.5685 60 60 46.5685 60 30C60 13.4315 46.5685 0 30 0C13.4315 0 0 13.4315 0 30C0 46.5685 13.4315 60 30 60ZM12.1228 17.9275C11.4039 18.5214 11 19.3268 11 20.1667V39.1667C11 40.0065 11.4039 40.812 12.1228 41.4058C12.8416 41.9997 13.8167 42.3333 14.8333 42.3333H45.5C46.5167 42.3333 47.4917 41.9997 48.2106 41.4058C48.9295 40.812 49.3333 40.0065 49.3333 39.1667V20.1667C49.3333 19.3268 48.9295 18.5214 48.2106 17.9275C47.4917 17.3336 46.5167 17 45.5 17H14.8333C13.8167 17 12.8416 17.3336 12.1228 17.9275ZM30.1667 29.1457L17.7448 20.1667H17.7467H42.5886L30.1667 29.1457ZM31.4298 32.4422L45.5 22.2709V39.1667H14.8333V22.2709L28.9036 32.4422C29.2531 32.6952 29.702 32.8347 30.1667 32.8347C30.6314 32.8347 31.0802 32.6952 31.4298 32.4422Z" fill="white"/>
</svg>
