<svg width="61" height="61" viewBox="0 0 74 74" fill="none" xmlns="http://www.w3.org/2000/svg">
<path d="M14.9997 7.66667C13.0548 7.66667 11.1895 8.43928 9.81422 9.81455C8.43896 11.1898 7.66634 13.0551 7.66634 15V59C7.66634 60.9449 8.43896 62.8102 9.81422 64.1854C11.1895 65.5607 13.0548 66.3333 14.9997 66.3333H58.9997C60.9446 66.3333 62.8099 65.5607 64.1851 64.1854C65.5604 62.8102 66.333 60.9449 66.333 59V15C66.333 13.0551 65.5604 11.1898 64.1851 9.81455C62.8099 8.43928 60.9446 7.66667 58.9997 7.66667H14.9997ZM14.9997 0.333334H58.9997C62.8895 0.333334 66.62 1.87857 69.3706 4.6291C72.1211 7.37963 73.6663 11.1102 73.6663 15V59C73.6663 62.8898 72.1211 66.6204 69.3706 69.3709C66.62 72.1214 62.8895 73.6667 58.9997 73.6667H14.9997C11.1098 73.6667 7.37931 72.1214 4.62878 69.3709C1.87824 66.6204 0.333008 62.8898 0.333008 59V15C0.333008 11.1102 1.87824 7.37963 4.62878 4.6291C7.37931 1.87857 11.1098 0.333334 14.9997 0.333334V0.333334Z" fill="#A9A9A9"/>
<path d="M58.3933 47.75V28.4643C58.3933 28.4643 38.8933 42.0714 36.9968 42.7775C35.1326 42.1036 15.5361 28.4643 15.5361 28.4643V47.75C15.5361 50.4286 16.104 50.9643 18.7504 50.9643H55.179C57.8886 50.9643 58.3933 50.4939 58.3933 47.75ZM58.3622 24.6832C58.3622 22.7321 57.7933 22.0357 55.179 22.0357H18.7504C16.0611 22.0357 15.5361 22.8714 15.5361 24.8214L15.5683 25.1214C15.5683 25.1214 34.9279 38.45 36.9968 39.1786C39.1826 38.3321 58.3933 24.8214 58.3933 24.8214L58.3622 24.6832Z" fill="#7F7F7F"/>
</svg>
